<?xml version="1.0" standalone="no"?>
<!DOCTYPE svg PUBLIC "-//W3C//DTD SVG 20010904//EN"
 "http://www.w3.org/TR/2001/REC-SVG-20010904/DTD/svg10.dtd">
<svg version="1.0" xmlns="http://www.w3.org/2000/svg"
 width="500.000000pt" height="500.000000pt" viewBox="0 0 500.000000 500.000000"
 preserveAspectRatio="xMidYMid meet">

<g transform="translate(0.000000,500.000000) scale(0.100000,-0.100000)"
fill="#3d9c4f" stroke="none">
<path d="M410 2975 l0 -1895 1301 0 1301 0 381 -379 c210 -209 437 -433 504
-500 l122 -120 306 312 c168 171 305 314 305 317 0 4 -220 226 -490 493 l-490
486 0 1591 0 1590 -1620 0 -1620 0 0 -1895z m2370 315 c3 -388 2 -712 -2 -720
-4 -10 -62 41 -201 180 -107 107 -207 206 -222 220 l-27 25 -308 -314 -307
-314 204 -201 c111 -111 203 -205 203 -209 0 -4 -188 -6 -417 -5 l-418 3 -3
1010 c-1 556 0 1016 3 1023 3 10 158 12 747 10 l743 -3 5 -705z m138 -1097
c66 -31 132 -116 156 -200 7 -22 4 -24 -54 -37 -23 -5 -27 -1 -43 43 -19 53
-84 121 -116 121 -26 0 -51 -26 -51 -54 0 -12 18 -62 40 -111 55 -124 53 -172
-8 -238 -55 -58 -143 -56 -223 6 -60 45 -99 98 -120 159 -19 58 -18 61 37 71
29 6 32 3 43 -33 14 -47 92 -135 127 -144 31 -8 69 13 79 44 4 12 -8 52 -34
108 -53 119 -58 151 -32 204 11 24 33 51 48 60 36 22 105 23 151 1z m227 -448
c130 -76 135 -235 11 -330 -75 -57 -165 -53 -237 12 -54 49 -69 81 -69 146 0
74 44 140 121 180 64 34 106 32 174 -8z m260 -256 c27 -24 33 -35 25 -44 -8
-10 -4 -15 20 -20 35 -8 90 -50 90 -71 0 -7 -16 -24 -35 -37 l-36 -24 -33 33
c-55 55 -76 48 -178 -53 l-88 -87 -30 29 c-16 16 -30 33 -30 39 0 9 249 266
257 266 1 0 18 -14 38 -31z m293 -166 c20 -15 39 -29 41 -30 3 -2 -11 -19 -29
-38 l-34 -35 39 -40 38 -39 -24 -20 c-32 -27 -38 -26 -76 11 l-33 32 -65 -64
c-82 -81 -87 -96 -46 -131 30 -24 31 -28 19 -55 -6 -16 -13 -30 -14 -32 -5 -9
-85 41 -103 64 -52 66 -41 106 60 209 l79 81 -25 24 -25 24 27 28 27 28 27
-26 26 -25 24 30 c13 16 25 30 27 30 2 1 20 -11 40 -26z"/>
<path d="M3024 1671 c-45 -28 -85 -84 -86 -122 -1 -24 7 -39 31 -61 17 -15 38
-28 47 -28 52 0 144 93 144 146 0 22 -64 84 -86 84 -11 0 -33 -9 -50 -19z"/>
</g>
</svg>
